<?xml version="1.0" standalone="no"?>
<svg viewBox="0 0 200 200" xmlns="http://www.w3.org/2000/svg">
  <path fill="#ffc107" d="M44.1,-75.3C58.5,-68.1,72.4,-58.9,80.8,-46.1C89.1,-33.2,92,-16.6,91.5,-0.3C90.9,16,87,32,79.1,45.6C71.2,59.3,59.3,70.7,45.4,79.4C31.6,88,15.8,93.9,0.1,93.8C-15.6,93.6,-31.2,87.4,-44.2,78.2C-57.1,69,-67.3,56.9,-75,43.4C-82.6,29.9,-87.6,14.9,-87.6,0C-87.6,-14.9,-82.6,-29.9,-74.8,-43.1C-67,-56.3,-56.4,-67.8,-43.4,-75.8C-30.5,-83.8,-15.3,-88.4,-0.2,-88.1C14.9,-87.7,29.7,-82.5,44.1,-75.3Z" transform="translate(100 100)" />
</svg>
